<svg xmlns="http://www.w3.org/2000/svg" xmlns:xlink="http://www.w3.org/1999/xlink" width="2000" zoomAndPan="magnify" viewBox="0 0 1500 1499.999933" height="2000" preserveAspectRatio="xMidYMid meet" version="1.0"><defs><clipPath id="ada8a28a7c"><path d="M 12.304688 21.066406 L 1479.933594 21.066406 L 1479.933594 1490 L 12.304688 1490 Z M 12.304688 21.066406 " clip-rule="nonzero"/></clipPath><clipPath id="dde6aefa8b"><path d="M 1479.933594 96.0625 L 1479.933594 1414.066406 C 1479.933594 1433.957031 1472.03125 1453.035156 1457.964844 1467.097656 C 1443.902344 1481.164062 1424.824219 1489.0625 1404.933594 1489.0625 L 87.300781 1489.0625 C 67.410156 1489.0625 48.335938 1481.164062 34.269531 1467.097656 C 20.207031 1453.035156 12.304688 1433.957031 12.304688 1414.066406 L 12.304688 96.0625 C 12.304688 76.171875 20.207031 57.097656 34.269531 43.03125 C 48.335938 28.964844 67.410156 21.066406 87.300781 21.066406 L 1404.933594 21.066406 C 1424.824219 21.066406 1443.902344 28.964844 1457.964844 43.03125 C 1472.03125 57.097656 1479.933594 76.171875 1479.933594 96.0625 Z M 1479.933594 96.0625 " clip-rule="nonzero"/></clipPath><clipPath id="8f9db895e8"><path d="M 0.304688 0.0664062 L 1467.933594 0.0664062 L 1467.933594 1468 L 0.304688 1468 Z M 0.304688 0.0664062 " clip-rule="nonzero"/></clipPath><clipPath id="504a34ead3"><path d="M 1467.933594 75.0625 L 1467.933594 1393.066406 C 1467.933594 1412.957031 1460.03125 1432.035156 1445.964844 1446.097656 C 1431.902344 1460.164062 1412.824219 1468.0625 1392.933594 1468.0625 L 75.300781 1468.0625 C 55.410156 1468.0625 36.335938 1460.164062 22.269531 1446.097656 C 8.207031 1432.035156 0.304688 1412.957031 0.304688 1393.066406 L 0.304688 75.0625 C 0.304688 55.171875 8.207031 36.097656 22.269531 22.03125 C 36.335938 7.964844 55.410156 0.0664062 75.300781 0.0664062 L 1392.933594 0.0664062 C 1412.824219 0.0664062 1431.902344 7.964844 1445.964844 22.03125 C 1460.03125 36.097656 1467.933594 55.171875 1467.933594 75.0625 Z M 1467.933594 75.0625 " clip-rule="nonzero"/></clipPath><clipPath id="08f0844104"><rect x="0" width="1468" y="0" height="1469"/></clipPath><clipPath id="f8ef015487"><path d="M 0 272 L 337 272 L 337 799 L 0 799 Z M 0 272 " clip-rule="nonzero"/></clipPath><clipPath id="7bb217b3ed"><path d="M -58.328125 263.355469 L 346.398438 668.082031 L 206.574219 807.90625 L -198.152344 403.179688 Z M -58.328125 263.355469 " clip-rule="nonzero"/></clipPath><clipPath id="dd1ec3b133"><path d="M -41.886719 279.792969 L 329.808594 651.492188 C 334.171875 655.851562 336.621094 661.765625 336.621094 667.933594 C 336.621094 674.097656 334.171875 680.011719 329.808594 684.371094 L 222.867188 791.316406 C 218.503906 795.675781 212.59375 798.125 206.425781 798.125 C 200.257812 798.128906 194.347656 795.675781 189.984375 791.316406 L -181.710938 419.617188 C -186.074219 415.257812 -188.523438 409.34375 -188.523438 403.179688 C -188.523438 397.011719 -186.074219 391.097656 -181.710938 386.738281 L -74.769531 279.792969 C -70.40625 275.433594 -64.496094 272.984375 -58.328125 272.984375 C -52.160156 272.984375 -46.246094 275.433594 -41.886719 279.792969 Z M -41.886719 279.792969 " clip-rule="nonzero"/></clipPath><clipPath id="b943050cd4"><path d="M 0 0.878906 L 336.71875 0.878906 L 336.71875 526.238281 L 0 526.238281 Z M 0 0.878906 " clip-rule="nonzero"/></clipPath><clipPath id="3f86dc08e9"><path d="M -58.328125 -8.644531 L 346.398438 396.082031 L 206.574219 535.90625 L -198.152344 131.179688 Z M -58.328125 -8.644531 " clip-rule="nonzero"/></clipPath><clipPath id="068cdfee6b"><path d="M -41.886719 7.792969 L 329.808594 379.492188 C 334.171875 383.851562 336.621094 389.765625 336.621094 395.933594 C 336.621094 402.097656 334.171875 408.011719 329.808594 412.371094 L 222.867188 519.316406 C 218.503906 523.675781 212.59375 526.125 206.425781 526.125 C 200.257812 526.128906 194.347656 523.675781 189.984375 519.316406 L -181.710938 147.617188 C -186.074219 143.257812 -188.523438 137.34375 -188.523438 131.179688 C -188.523438 125.011719 -186.074219 119.097656 -181.710938 114.738281 L -74.769531 7.792969 C -70.40625 3.433594 -64.496094 0.984375 -58.328125 0.984375 C -52.160156 0.984375 -46.246094 3.433594 -41.886719 7.792969 Z M -41.886719 7.792969 " clip-rule="nonzero"/></clipPath><clipPath id="cdf205d6b9"><rect x="0" width="337" y="0" height="527"/></clipPath><clipPath id="b6d4084871"><path d="M 122 223 L 653 223 L 653 754 L 122 754 Z M 122 223 " clip-rule="nonzero"/></clipPath><clipPath id="8d66f9d125"><path d="M 113.339844 623.203125 L 522.984375 213.558594 L 662.808594 353.382812 L 253.167969 763.027344 Z M 113.339844 623.203125 " clip-rule="nonzero"/></clipPath><clipPath id="c416ab911b"><path d="M 129.78125 606.761719 L 506.1875 230.355469 C 510.546875 225.996094 516.460938 223.542969 522.628906 223.542969 C 528.792969 223.542969 534.707031 225.996094 539.070312 230.355469 L 646.011719 337.300781 C 650.375 341.660156 652.824219 347.574219 652.824219 353.738281 C 652.824219 359.90625 650.375 365.820312 646.011719 370.179688 L 269.605469 746.585938 C 265.246094 750.945312 259.332031 753.394531 253.167969 753.394531 C 247 753.394531 241.085938 750.945312 236.726562 746.585938 L 129.78125 639.640625 C 125.421875 635.28125 122.972656 629.367188 122.972656 623.203125 C 122.972656 617.035156 125.421875 611.121094 129.78125 606.761719 Z M 129.78125 606.761719 " clip-rule="nonzero"/></clipPath><clipPath id="c91e14a3c9"><path d="M 0.878906 0.441406 L 531 0.441406 L 531 530.601562 L 0.878906 530.601562 Z M 0.878906 0.441406 " clip-rule="nonzero"/></clipPath><clipPath id="923722b19e"><path d="M -8.660156 400.203125 L 400.984375 -9.441406 L 540.808594 130.382812 L 131.167969 540.027344 Z M -8.660156 400.203125 " clip-rule="nonzero"/></clipPath><clipPath id="fd06a51617"><path d="M 7.78125 383.761719 L 384.1875 7.355469 C 388.546875 2.996094 394.460938 0.542969 400.628906 0.542969 C 406.792969 0.542969 412.707031 2.996094 417.070312 7.355469 L 524.011719 114.300781 C 528.375 118.660156 530.824219 124.574219 530.824219 130.738281 C 530.824219 136.90625 528.375 142.820312 524.011719 147.179688 L 147.605469 523.585938 C 143.246094 527.945312 137.332031 530.394531 131.167969 530.394531 C 125 530.394531 119.085938 527.945312 114.726562 523.585938 L 7.78125 416.640625 C 3.421875 412.28125 0.972656 406.367188 0.972656 400.203125 C 0.972656 394.035156 3.421875 388.121094 7.78125 383.761719 Z M 7.78125 383.761719 " clip-rule="nonzero"/></clipPath><clipPath id="2a4e963183"><rect x="0" width="531" y="0" height="531"/></clipPath><clipPath id="4ffa3be56a"><path d="M 509.851562 213.890625 L 707.59375 213.890625 L 707.59375 1317.695312 L 509.851562 1317.695312 Z M 509.851562 213.890625 " clip-rule="nonzero"/></clipPath><clipPath id="af1ca73b5d"><path d="M 509.851562 1294.445312 L 509.851562 237.167969 C 509.851562 231 512.300781 225.085938 516.660156 220.726562 C 521.019531 216.367188 526.933594 213.917969 533.101562 213.917969 L 684.34375 213.917969 C 690.507812 213.917969 696.421875 216.367188 700.78125 220.726562 C 705.144531 225.085938 707.59375 231 707.59375 237.167969 L 707.59375 1294.445312 C 707.59375 1300.609375 705.144531 1306.523438 700.78125 1310.882812 C 696.421875 1315.246094 690.507812 1317.695312 684.34375 1317.695312 L 533.101562 1317.695312 C 526.933594 1317.695312 521.019531 1315.246094 516.660156 1310.882812 C 512.300781 1306.523438 509.851562 1300.609375 509.851562 1294.445312 Z M 509.851562 1294.445312 " clip-rule="nonzero"/></clipPath><clipPath id="ea5eaf0b0e"><path d="M 0.851562 0.890625 L 198.59375 0.890625 L 198.59375 1104.695312 L 0.851562 1104.695312 Z M 0.851562 0.890625 " clip-rule="nonzero"/></clipPath><clipPath id="3ae3d3fc26"><path d="M 0.851562 1081.445312 L 0.851562 24.167969 C 0.851562 18 3.300781 12.085938 7.660156 7.726562 C 12.019531 3.367188 17.933594 0.917969 24.101562 0.917969 L 175.34375 0.917969 C 181.507812 0.917969 187.421875 3.367188 191.78125 7.726562 C 196.144531 12.085938 198.59375 18 198.59375 24.167969 L 198.59375 1081.445312 C 198.59375 1087.609375 196.144531 1093.523438 191.78125 1097.882812 C 187.421875 1102.246094 181.507812 1104.695312 175.34375 1104.695312 L 24.101562 1104.695312 C 17.933594 1104.695312 12.019531 1102.246094 7.660156 1097.882812 C 3.300781 1093.523438 0.851562 1087.609375 0.851562 1081.445312 Z M 0.851562 1081.445312 " clip-rule="nonzero"/></clipPath><clipPath id="c7f46254be"><rect x="0" width="199" y="0" height="1105"/></clipPath><clipPath id="471766dc67"><path d="M 887.386719 213.890625 L 1085.128906 213.890625 L 1085.128906 1317.695312 L 887.386719 1317.695312 Z M 887.386719 213.890625 " clip-rule="nonzero"/></clipPath><clipPath id="e6f5595e3d"><path d="M 887.386719 1294.445312 L 887.386719 237.167969 C 887.386719 231 889.835938 225.085938 894.195312 220.726562 C 898.558594 216.367188 904.472656 213.917969 910.636719 213.917969 L 1061.878906 213.917969 C 1068.046875 213.917969 1073.960938 216.367188 1078.320312 220.726562 C 1082.679688 225.085938 1085.128906 231 1085.128906 237.167969 L 1085.128906 1294.445312 C 1085.128906 1300.609375 1082.679688 1306.523438 1078.320312 1310.882812 C 1073.960938 1315.246094 1068.046875 1317.695312 1061.878906 1317.695312 L 910.636719 1317.695312 C 904.472656 1317.695312 898.558594 1315.246094 894.195312 1310.882812 C 889.835938 1306.523438 887.386719 1300.609375 887.386719 1294.445312 Z M 887.386719 1294.445312 " clip-rule="nonzero"/></clipPath><clipPath id="42fe2cf88a"><path d="M 0.386719 0.890625 L 198.128906 0.890625 L 198.128906 1104.695312 L 0.386719 1104.695312 Z M 0.386719 0.890625 " clip-rule="nonzero"/></clipPath><clipPath id="695ee95ef6"><path d="M 0.386719 1081.445312 L 0.386719 24.167969 C 0.386719 18 2.835938 12.085938 7.195312 7.726562 C 11.558594 3.367188 17.472656 0.917969 23.636719 0.917969 L 174.878906 0.917969 C 181.046875 0.917969 186.960938 3.367188 191.320312 7.726562 C 195.679688 12.085938 198.128906 18 198.128906 24.167969 L 198.128906 1081.445312 C 198.128906 1087.609375 195.679688 1093.523438 191.320312 1097.882812 C 186.960938 1102.246094 181.046875 1104.695312 174.878906 1104.695312 L 23.636719 1104.695312 C 17.472656 1104.695312 11.558594 1102.246094 7.195312 1097.882812 C 2.835938 1093.523438 0.386719 1087.609375 0.386719 1081.445312 Z M 0.386719 1081.445312 " clip-rule="nonzero"/></clipPath><clipPath id="5621dc6b03"><rect x="0" width="199" y="0" height="1105"/></clipPath><clipPath id="bd68e65d53"><path d="M 915.632812 1119.953125 L 1500 1119.953125 L 1500 1317.695312 L 915.632812 1317.695312 Z M 915.632812 1119.953125 " clip-rule="nonzero"/></clipPath><clipPath id="aa64bc650d"><path d="M 938.882812 1119.953125 L 1577.398438 1119.953125 C 1583.5625 1119.953125 1589.476562 1122.402344 1593.835938 1126.761719 C 1598.199219 1131.121094 1600.648438 1137.035156 1600.648438 1143.203125 L 1600.648438 1294.445312 C 1600.648438 1300.609375 1598.199219 1306.523438 1593.835938 1310.882812 C 1589.476562 1315.246094 1583.5625 1317.695312 1577.398438 1317.695312 L 938.882812 1317.695312 C 932.71875 1317.695312 926.804688 1315.246094 922.441406 1310.882812 C 918.082031 1306.523438 915.632812 1300.609375 915.632812 1294.445312 L 915.632812 1143.203125 C 915.632812 1137.035156 918.082031 1131.121094 922.441406 1126.761719 C 926.804688 1122.402344 932.71875 1119.953125 938.882812 1119.953125 Z M 938.882812 1119.953125 " clip-rule="nonzero"/></clipPath><clipPath id="8e701dbc9a"><path d="M 0.632812 0.953125 L 585 0.953125 L 585 198.695312 L 0.632812 198.695312 Z M 0.632812 0.953125 " clip-rule="nonzero"/></clipPath><clipPath id="bbd3a2588b"><path d="M 23.882812 0.953125 L 662.398438 0.953125 C 668.5625 0.953125 674.476562 3.402344 678.835938 7.761719 C 683.199219 12.121094 685.648438 18.035156 685.648438 24.203125 L 685.648438 175.445312 C 685.648438 181.609375 683.199219 187.523438 678.835938 191.882812 C 674.476562 196.246094 668.5625 198.695312 662.398438 198.695312 L 23.882812 198.695312 C 17.71875 198.695312 11.804688 196.246094 7.441406 191.882812 C 3.082031 187.523438 0.632812 181.609375 0.632812 175.445312 L 0.632812 24.203125 C 0.632812 18.035156 3.082031 12.121094 7.441406 7.761719 C 11.804688 3.402344 17.71875 0.953125 23.882812 0.953125 Z M 23.882812 0.953125 " clip-rule="nonzero"/></clipPath><clipPath id="99a2bb57b7"><rect x="0" width="585" y="0" height="199"/></clipPath><clipPath id="45882e6a38"><path d="M 525 525 L 619.71875 525 L 619.71875 619.71875 L 525 619.71875 Z M 525 525 " clip-rule="nonzero"/></clipPath><clipPath id="1107f830ee"><path d="M 576.941406 525.222656 L 578.449219 532.566406 C 581.367188 533.015625 584.230469 533.78125 586.984375 534.855469 L 591.960938 529.246094 C 594.75 530.511719 597.40625 532.046875 599.894531 533.828125 L 597.53125 540.941406 C 599.835938 542.789062 601.929688 544.882812 603.777344 547.191406 L 610.890625 544.824219 C 612.671875 547.3125 614.207031 549.972656 615.472656 552.757812 L 609.867188 557.738281 C 610.9375 560.488281 611.707031 563.351562 612.152344 566.269531 L 619.496094 567.78125 C 619.792969 570.824219 619.792969 573.894531 619.496094 576.941406 L 612.152344 578.449219 C 611.707031 581.371094 610.9375 584.230469 609.867188 586.984375 L 615.472656 591.960938 C 614.207031 594.75 612.671875 597.40625 610.890625 599.894531 L 603.777344 597.53125 C 601.929688 599.832031 599.835938 601.929688 597.53125 603.777344 L 599.894531 610.890625 C 597.40625 612.671875 594.75 614.203125 591.960938 615.472656 L 586.984375 609.867188 C 584.230469 610.9375 581.367188 611.707031 578.449219 612.152344 L 576.941406 619.5 C 573.894531 619.792969 570.824219 619.792969 567.777344 619.5 L 566.269531 612.152344 C 563.351562 611.707031 560.488281 610.9375 557.738281 609.867188 L 552.757812 615.472656 C 549.972656 614.203125 547.3125 612.671875 544.824219 610.890625 L 547.191406 603.777344 C 544.882812 601.929688 542.789062 599.832031 540.941406 597.53125 L 533.828125 599.894531 C 532.046875 597.40625 530.511719 594.75 529.246094 591.960938 L 534.851562 586.984375 C 533.78125 584.230469 533.011719 581.371094 532.566406 578.449219 L 525.222656 576.941406 C 524.925781 573.894531 524.925781 570.824219 525.222656 567.78125 L 532.566406 566.269531 C 533.011719 563.351562 533.78125 560.488281 534.851562 557.738281 L 529.246094 552.757812 C 530.511719 549.972656 532.046875 547.3125 533.828125 544.824219 L 540.941406 547.191406 C 542.789062 544.882812 544.882812 542.789062 547.191406 540.941406 L 544.824219 533.828125 C 547.3125 532.046875 549.972656 530.511719 552.757812 529.246094 L 557.738281 534.855469 C 560.488281 533.78125 563.351562 533.015625 566.269531 532.566406 L 567.777344 525.222656 C 570.824219 524.925781 573.894531 524.925781 576.941406 525.222656 Z M 572.359375 542.761719 C 556.023438 542.761719 542.761719 556.023438 542.761719 572.359375 C 542.761719 588.695312 556.023438 601.957031 572.359375 601.957031 C 588.695312 601.957031 601.957031 588.695312 601.957031 572.359375 C 601.957031 556.023438 588.695312 542.761719 572.359375 542.761719 Z M 572.359375 542.761719 " clip-rule="nonzero"/></clipPath><clipPath id="0144865f7f"><path d="M 0 0 L 94.71875 0 L 94.71875 94.71875 L 0 94.71875 Z M 0 0 " clip-rule="nonzero"/></clipPath><clipPath id="40d544081f"><path d="M 51.941406 0.222656 L 53.449219 7.566406 C 56.367188 8.015625 59.230469 8.78125 61.984375 9.855469 L 66.960938 4.246094 C 69.75 5.511719 72.40625 7.046875 74.894531 8.828125 L 72.53125 15.941406 C 74.835938 17.789062 76.929688 19.882812 78.777344 22.191406 L 85.890625 19.824219 C 87.671875 22.3125 89.207031 24.972656 90.472656 27.757812 L 84.867188 32.738281 C 85.9375 35.488281 86.707031 38.351562 87.152344 41.269531 L 94.496094 42.78125 C 94.792969 45.824219 94.792969 48.894531 94.496094 51.941406 L 87.152344 53.449219 C 86.707031 56.371094 85.9375 59.230469 84.867188 61.984375 L 90.472656 66.960938 C 89.207031 69.75 87.671875 72.40625 85.890625 74.894531 L 78.777344 72.53125 C 76.929688 74.832031 74.835938 76.929688 72.53125 78.777344 L 74.894531 85.890625 C 72.40625 87.671875 69.75 89.203125 66.960938 90.472656 L 61.984375 84.867188 C 59.230469 85.9375 56.367188 86.707031 53.449219 87.152344 L 51.941406 94.5 C 48.894531 94.792969 45.824219 94.792969 42.777344 94.5 L 41.269531 87.152344 C 38.351562 86.707031 35.488281 85.9375 32.738281 84.867188 L 27.757812 90.472656 C 24.972656 89.203125 22.3125 87.671875 19.824219 85.890625 L 22.191406 78.777344 C 19.882812 76.929688 17.789062 74.832031 15.941406 72.53125 L 8.828125 74.894531 C 7.046875 72.40625 5.511719 69.75 4.246094 66.960938 L 9.851562 61.984375 C 8.78125 59.230469 8.011719 56.371094 7.566406 53.449219 L 0.222656 51.941406 C -0.0742188 48.894531 -0.0742188 45.824219 0.222656 42.78125 L 7.566406 41.269531 C 8.011719 38.351562 8.78125 35.488281 9.851562 32.738281 L 4.246094 27.757812 C 5.511719 24.972656 7.046875 22.3125 8.828125 19.824219 L 15.941406 22.191406 C 17.789062 19.882812 19.882812 17.789062 22.191406 15.941406 L 19.824219 8.828125 C 22.3125 7.046875 24.972656 5.511719 27.757812 4.246094 L 32.738281 9.855469 C 35.488281 8.78125 38.351562 8.015625 41.269531 7.566406 L 42.777344 0.222656 C 45.824219 -0.0742188 48.894531 -0.0742188 51.941406 0.222656 Z M 47.359375 17.761719 C 31.023438 17.761719 17.761719 31.023438 17.761719 47.359375 C 17.761719 63.695312 31.023438 76.957031 47.359375 76.957031 C 63.695312 76.957031 76.957031 63.695312 76.957031 47.359375 C 76.957031 31.023438 63.695312 17.761719 47.359375 17.761719 Z M 47.359375 17.761719 " clip-rule="nonzero"/></clipPath><clipPath id="6de17fad9d"><rect x="0" width="95" y="0" height="95"/></clipPath></defs><g clip-path="url(#ada8a28a7c)"><g clip-path="url(#dde6aefa8b)"><g transform="matrix(1, 0, 0, 1, 12, 21)"><g clip-path="url(#08f0844104)"><g clip-path="url(#8f9db895e8)"><g clip-path="url(#504a34ead3)"><path fill="#000000" d="M 0.304688 0.0664062 L 1467.933594 0.0664062 L 1467.933594 1467.695312 L 0.304688 1467.695312 Z M 0.304688 0.0664062 " fill-opacity="1" fill-rule="nonzero"/></g></g></g></g></g></g><g clip-path="url(#f8ef015487)"><g clip-path="url(#7bb217b3ed)"><g clip-path="url(#dd1ec3b133)"><g transform="matrix(1, 0, 0, 1, 0, 272)"><g clip-path="url(#cdf205d6b9)"><g clip-path="url(#b943050cd4)"><g clip-path="url(#3f86dc08e9)"><g clip-path="url(#068cdfee6b)"><path fill="#ffffff" d="M -58.328125 -8.644531 L 346.398438 396.082031 L 206.574219 535.90625 L -198.152344 131.179688 Z M -58.328125 -8.644531 " fill-opacity="1" fill-rule="nonzero"/></g></g></g></g></g></g></g></g><g clip-path="url(#b6d4084871)"><g clip-path="url(#8d66f9d125)"><g clip-path="url(#c416ab911b)"><g transform="matrix(1, 0, 0, 1, 122, 223)"><g clip-path="url(#2a4e963183)"><g clip-path="url(#c91e14a3c9)"><g clip-path="url(#923722b19e)"><g clip-path="url(#fd06a51617)"><path fill="#ffffff" d="M -8.660156 400.203125 L 400.4375 -8.894531 L 540.261719 130.929688 L 131.167969 540.027344 Z M -8.660156 400.203125 " fill-opacity="1" fill-rule="nonzero"/></g></g></g></g></g></g></g></g><g clip-path="url(#4ffa3be56a)"><g clip-path="url(#af1ca73b5d)"><g transform="matrix(1, 0, 0, 1, 509, 213)"><g clip-path="url(#c7f46254be)"><g clip-path="url(#ea5eaf0b0e)"><g clip-path="url(#3ae3d3fc26)"><path fill="#ffffff" d="M 0.851562 1104.695312 L 0.851562 0.890625 L 198.59375 0.890625 L 198.59375 1104.695312 Z M 0.851562 1104.695312 " fill-opacity="1" fill-rule="nonzero"/></g></g></g></g></g></g><g clip-path="url(#471766dc67)"><g clip-path="url(#e6f5595e3d)"><g transform="matrix(1, 0, 0, 1, 887, 213)"><g clip-path="url(#5621dc6b03)"><g clip-path="url(#42fe2cf88a)"><g clip-path="url(#695ee95ef6)"><path fill="#ffffff" d="M 0.386719 1104.695312 L 0.386719 0.890625 L 198.128906 0.890625 L 198.128906 1104.695312 Z M 0.386719 1104.695312 " fill-opacity="1" fill-rule="nonzero"/></g></g></g></g></g></g><g clip-path="url(#bd68e65d53)"><g clip-path="url(#aa64bc650d)"><g transform="matrix(1, 0, 0, 1, 915, 1119)"><g clip-path="url(#99a2bb57b7)"><g clip-path="url(#8e701dbc9a)"><g clip-path="url(#bbd3a2588b)"><path fill="#ffffff" d="M 0.632812 0.953125 L 685.78125 0.953125 L 685.78125 198.695312 L 0.632812 198.695312 Z M 0.632812 0.953125 " fill-opacity="1" fill-rule="nonzero"/></g></g></g></g></g></g><g clip-path="url(#45882e6a38)"><g clip-path="url(#1107f830ee)"><g transform="matrix(1, 0, 0, 1, 525, 525)"><g clip-path="url(#6de17fad9d)"><g clip-path="url(#0144865f7f)"><g clip-path="url(#40d544081f)"><path fill="#ffffff" d="M 0 0 L 94.71875 0 L 94.71875 94.71875 L 0 94.71875 Z M 0 0 " fill-opacity="1" fill-rule="nonzero"/></g></g></g></g></g></g></svg>